<mxfile host="Electron" modified="2023-04-12T21:21:32.952Z" agent="Mozilla/5.0 (Windows NT 10.0; Win64; x64) AppleWebKit/537.36 (KHTML, like Gecko) draw.io/21.1.2 Chrome/106.0.5249.199 Electron/21.4.3 Safari/537.36" version="21.1.2" etag="oziQn3Ku8lt-e7o9B_6U" type="device" pages="3">
  <diagram id="rDiTbVTM4S5m-2igP_W3" name="push">
    <mxGraphModel dx="1077" dy="627" grid="1" gridSize="10" guides="1" tooltips="1" connect="1" arrows="1" fold="1" page="1" pageScale="1" pageWidth="850" pageHeight="1100" math="0" shadow="0">
      <root>
        <mxCell id="0" />
        <mxCell id="1" parent="0" />
        <mxCell id="9kISWJlZwF8fouxSzWeM-1" value="Start Page" style="rounded=1;whiteSpace=wrap;html=1;" vertex="1" parent="1">
          <mxGeometry x="70" y="370" width="120" height="60" as="geometry" />
        </mxCell>
        <mxCell id="9kISWJlZwF8fouxSzWeM-2" value="Options" style="rounded=1;whiteSpace=wrap;html=1;" vertex="1" parent="1">
          <mxGeometry x="280" y="370" width="120" height="60" as="geometry" />
        </mxCell>
        <mxCell id="9kISWJlZwF8fouxSzWeM-3" value="" style="endArrow=classic;html=1;rounded=0;exitX=1;exitY=0.5;exitDx=0;exitDy=0;entryX=0;entryY=0.5;entryDx=0;entryDy=0;" edge="1" parent="1" source="9kISWJlZwF8fouxSzWeM-1" target="9kISWJlZwF8fouxSzWeM-2">
          <mxGeometry width="50" height="50" relative="1" as="geometry">
            <mxPoint x="220" y="430" as="sourcePoint" />
            <mxPoint x="260" y="400" as="targetPoint" />
          </mxGeometry>
        </mxCell>
        <mxCell id="9kISWJlZwF8fouxSzWeM-4" value="Push" style="edgeLabel;html=1;align=center;verticalAlign=middle;resizable=0;points=[];" vertex="1" connectable="0" parent="9kISWJlZwF8fouxSzWeM-3">
          <mxGeometry x="-0.4501" relative="1" as="geometry">
            <mxPoint as="offset" />
          </mxGeometry>
        </mxCell>
      </root>
    </mxGraphModel>
  </diagram>
  <diagram id="z1wblbZ9nftVsPki522I" name="pop">
    <mxGraphModel dx="625" dy="364" grid="1" gridSize="10" guides="1" tooltips="1" connect="1" arrows="1" fold="1" page="1" pageScale="1" pageWidth="850" pageHeight="1100" math="0" shadow="0">
      <root>
        <mxCell id="0" />
        <mxCell id="1" parent="0" />
        <mxCell id="C2fBRjnppxmhVrGb2lX2-1" value="Start Page" style="rounded=1;whiteSpace=wrap;html=1;" vertex="1" parent="1">
          <mxGeometry x="70" y="370" width="120" height="60" as="geometry" />
        </mxCell>
        <mxCell id="0vNSMHxqEQ4PkvM-AKbO-1" value="" style="edgeStyle=orthogonalEdgeStyle;rounded=0;orthogonalLoop=1;jettySize=auto;html=1;" edge="1" parent="1" source="C2fBRjnppxmhVrGb2lX2-2" target="C2fBRjnppxmhVrGb2lX2-1">
          <mxGeometry relative="1" as="geometry" />
        </mxCell>
        <mxCell id="C2fBRjnppxmhVrGb2lX2-2" value="Options" style="rounded=1;whiteSpace=wrap;html=1;dashed=1;dashPattern=12 12;" vertex="1" parent="1">
          <mxGeometry x="280" y="370" width="120" height="60" as="geometry" />
        </mxCell>
        <mxCell id="C2fBRjnppxmhVrGb2lX2-3" value="" style="endArrow=classic;html=1;rounded=0;entryX=1;entryY=0.5;entryDx=0;entryDy=0;" edge="1" parent="1" target="C2fBRjnppxmhVrGb2lX2-1">
          <mxGeometry width="50" height="50" relative="1" as="geometry">
            <mxPoint x="270" y="400" as="sourcePoint" />
            <mxPoint x="240" y="440" as="targetPoint" />
          </mxGeometry>
        </mxCell>
        <mxCell id="C2fBRjnppxmhVrGb2lX2-4" value="Pop" style="edgeLabel;html=1;align=center;verticalAlign=middle;resizable=0;points=[];" vertex="1" connectable="0" parent="C2fBRjnppxmhVrGb2lX2-3">
          <mxGeometry x="-0.4501" relative="1" as="geometry">
            <mxPoint as="offset" />
          </mxGeometry>
        </mxCell>
      </root>
    </mxGraphModel>
  </diagram>
  <diagram id="K-9gYJLKFTVwKQr_e5hD" name="complex">
    <mxGraphModel dx="744" dy="433" grid="1" gridSize="10" guides="1" tooltips="1" connect="1" arrows="1" fold="1" page="1" pageScale="1" pageWidth="850" pageHeight="1100" math="0" shadow="0">
      <root>
        <mxCell id="0" />
        <mxCell id="1" parent="0" />
        <mxCell id="jExTOUoiHQRsS6dNK8UB-1" value="Start Page" style="rounded=1;whiteSpace=wrap;html=1;" vertex="1" parent="1">
          <mxGeometry x="70" y="370" width="120" height="60" as="geometry" />
        </mxCell>
        <mxCell id="jExTOUoiHQRsS6dNK8UB-2" value="Options" style="rounded=1;whiteSpace=wrap;html=1;" vertex="1" parent="1">
          <mxGeometry x="280" y="370" width="120" height="60" as="geometry" />
        </mxCell>
        <mxCell id="jExTOUoiHQRsS6dNK8UB-3" value="" style="endArrow=classic;html=1;rounded=0;exitX=1.006;exitY=0.301;exitDx=0;exitDy=0;entryX=-0.022;entryY=0.296;entryDx=0;entryDy=0;entryPerimeter=0;exitPerimeter=0;" edge="1" parent="1" source="jExTOUoiHQRsS6dNK8UB-1" target="jExTOUoiHQRsS6dNK8UB-2">
          <mxGeometry width="50" height="50" relative="1" as="geometry">
            <mxPoint x="220" y="430" as="sourcePoint" />
            <mxPoint x="260" y="400" as="targetPoint" />
          </mxGeometry>
        </mxCell>
        <mxCell id="jExTOUoiHQRsS6dNK8UB-4" value="Push" style="edgeLabel;html=1;align=center;verticalAlign=middle;resizable=0;points=[];" vertex="1" connectable="0" parent="jExTOUoiHQRsS6dNK8UB-3">
          <mxGeometry x="-0.4501" relative="1" as="geometry">
            <mxPoint as="offset" />
          </mxGeometry>
        </mxCell>
        <mxCell id="jExTOUoiHQRsS6dNK8UB-5" value="" style="endArrow=classic;html=1;rounded=0;exitX=0;exitY=0.75;exitDx=0;exitDy=0;entryX=1;entryY=0.75;entryDx=0;entryDy=0;" edge="1" parent="1" source="jExTOUoiHQRsS6dNK8UB-2" target="jExTOUoiHQRsS6dNK8UB-1">
          <mxGeometry width="50" height="50" relative="1" as="geometry">
            <mxPoint x="201" y="398" as="sourcePoint" />
            <mxPoint x="287" y="398" as="targetPoint" />
          </mxGeometry>
        </mxCell>
        <mxCell id="jExTOUoiHQRsS6dNK8UB-6" value="Pop" style="edgeLabel;html=1;align=center;verticalAlign=middle;resizable=0;points=[];" vertex="1" connectable="0" parent="jExTOUoiHQRsS6dNK8UB-5">
          <mxGeometry x="-0.4501" relative="1" as="geometry">
            <mxPoint as="offset" />
          </mxGeometry>
        </mxCell>
        <mxCell id="jExTOUoiHQRsS6dNK8UB-7" value="Ship Picker" style="rounded=1;whiteSpace=wrap;html=1;" vertex="1" parent="1">
          <mxGeometry x="500" y="320" width="120" height="60" as="geometry" />
        </mxCell>
        <mxCell id="jExTOUoiHQRsS6dNK8UB-8" value="" style="endArrow=classic;html=1;rounded=0;entryX=0.176;entryY=0.273;entryDx=0;entryDy=0;entryPerimeter=0;exitX=0.972;exitY=0.455;exitDx=0;exitDy=0;exitPerimeter=0;" edge="1" parent="1" target="jExTOUoiHQRsS6dNK8UB-18" source="jExTOUoiHQRsS6dNK8UB-17">
          <mxGeometry width="50" height="50" relative="1" as="geometry">
            <mxPoint x="411" y="338" as="sourcePoint" />
            <mxPoint x="480" y="350" as="targetPoint" />
          </mxGeometry>
        </mxCell>
        <mxCell id="jExTOUoiHQRsS6dNK8UB-9" value="Push" style="edgeLabel;html=1;align=center;verticalAlign=middle;resizable=0;points=[];" vertex="1" connectable="0" parent="jExTOUoiHQRsS6dNK8UB-8">
          <mxGeometry x="-0.4501" relative="1" as="geometry">
            <mxPoint x="13" y="-9" as="offset" />
          </mxGeometry>
        </mxCell>
        <mxCell id="jExTOUoiHQRsS6dNK8UB-10" value="" style="endArrow=classic;html=1;rounded=0;exitX=0;exitY=0.75;exitDx=0;exitDy=0;entryX=1;entryY=0.25;entryDx=0;entryDy=0;" edge="1" parent="1" source="jExTOUoiHQRsS6dNK8UB-7" target="jExTOUoiHQRsS6dNK8UB-2">
          <mxGeometry width="50" height="50" relative="1" as="geometry">
            <mxPoint x="421" y="348" as="sourcePoint" />
            <mxPoint x="410" y="365" as="targetPoint" />
          </mxGeometry>
        </mxCell>
        <mxCell id="jExTOUoiHQRsS6dNK8UB-11" value="Pop" style="edgeLabel;html=1;align=center;verticalAlign=middle;resizable=0;points=[];" vertex="1" connectable="0" parent="jExTOUoiHQRsS6dNK8UB-10">
          <mxGeometry x="-0.4501" relative="1" as="geometry">
            <mxPoint x="-22" y="10" as="offset" />
          </mxGeometry>
        </mxCell>
        <mxCell id="jExTOUoiHQRsS6dNK8UB-12" value="Avatar Editor" style="rounded=1;whiteSpace=wrap;html=1;" vertex="1" parent="1">
          <mxGeometry x="500" y="410" width="120" height="60" as="geometry" />
        </mxCell>
        <mxCell id="jExTOUoiHQRsS6dNK8UB-13" value="" style="endArrow=classic;html=1;rounded=0;exitX=1;exitY=0.667;exitDx=0;exitDy=0;entryX=0.176;entryY=0.636;entryDx=0;entryDy=0;entryPerimeter=0;exitPerimeter=0;" edge="1" parent="1" target="jExTOUoiHQRsS6dNK8UB-18" source="jExTOUoiHQRsS6dNK8UB-2">
          <mxGeometry width="50" height="50" relative="1" as="geometry">
            <mxPoint x="426" y="428" as="sourcePoint" />
            <mxPoint x="495" y="440" as="targetPoint" />
          </mxGeometry>
        </mxCell>
        <mxCell id="jExTOUoiHQRsS6dNK8UB-14" value="Push" style="edgeLabel;html=1;align=center;verticalAlign=middle;resizable=0;points=[];" vertex="1" connectable="0" parent="jExTOUoiHQRsS6dNK8UB-13">
          <mxGeometry x="-0.4501" relative="1" as="geometry">
            <mxPoint x="13" y="-3" as="offset" />
          </mxGeometry>
        </mxCell>
        <mxCell id="jExTOUoiHQRsS6dNK8UB-15" value="" style="endArrow=classic;html=1;rounded=0;exitX=0;exitY=0.75;exitDx=0;exitDy=0;entryX=0.972;entryY=0.636;entryDx=0;entryDy=0;entryPerimeter=0;" edge="1" parent="1" source="jExTOUoiHQRsS6dNK8UB-12" target="jExTOUoiHQRsS6dNK8UB-17">
          <mxGeometry width="50" height="50" relative="1" as="geometry">
            <mxPoint x="436" y="438" as="sourcePoint" />
            <mxPoint x="425" y="455" as="targetPoint" />
          </mxGeometry>
        </mxCell>
        <mxCell id="jExTOUoiHQRsS6dNK8UB-16" value="Pop" style="edgeLabel;html=1;align=center;verticalAlign=middle;resizable=0;points=[];" vertex="1" connectable="0" parent="jExTOUoiHQRsS6dNK8UB-15">
          <mxGeometry x="-0.4501" relative="1" as="geometry">
            <mxPoint x="-22" y="-5" as="offset" />
          </mxGeometry>
        </mxCell>
        <mxCell id="jExTOUoiHQRsS6dNK8UB-17" value="Main Pages" style="rounded=0;whiteSpace=wrap;html=1;fillColor=none;verticalAlign=top;" vertex="1" parent="1">
          <mxGeometry x="50" y="280" width="360" height="220" as="geometry" />
        </mxCell>
        <mxCell id="jExTOUoiHQRsS6dNK8UB-18" value="Option Sub pages" style="rounded=0;whiteSpace=wrap;html=1;fillColor=none;verticalAlign=top;" vertex="1" parent="1">
          <mxGeometry x="470" y="280" width="170" height="220" as="geometry" />
        </mxCell>
      </root>
    </mxGraphModel>
  </diagram>
</mxfile>
